# xmcd
#
# Track frame offsets: 
#        150
#        17772
#        27325
#        42507
#        55140
#        67810
#        79107
#        91392
#        103300
#        114487
#        128440
#        143537
#        157105
#        169637
#
# Disc length: 2447 seconds
#
# Revision: 0
# Processed by: cddbd v1.4PL0 Copyright (c) Steve Scherf et al.
# Submitted via: ExactAudioCopy v0.90b4
#
DISCID=b0098d0e
DTITLE=Olivia Newton-John - Olivia
DYEAR=1998
DGENRE=Pop
TTITLE0=Angel of the Morning
TTITLE1=Just a Little Too Much
TTITLE2=If We Only Have Love
TTITLE3=Winterwood
TTITLE4=My Old Man's Got a Gun
TTITLE5=Changes
TTITLE6=I'm a Small and Lonely Light
TTITLE7=Why Don't You Write Me
TTITLE8=Mary Skeffington
TTITLE9=Behind That Locked Door
TTITLE10=What Is Life
TTITLE11=Everything I Own
TTITLE12=Living In Harmony
TTITLE13=I Will Touch You
EXTD=
EXTT0=
EXTT1=
EXTT2=
EXTT3=
EXTT4=
EXTT5=
EXTT6=
EXTT7=
EXTT8=
EXTT9=
EXTT10=
EXTT11=
EXTT12=
EXTT13=
PLAYORDER=
